<svg width="26" height="25" viewBox="0 0 26 25" fill="none" xmlns="http://www.w3.org/2000/svg">
<g clip-path="url(#clip0_5_77)">
<path d="M20.2917 13.5417H14.0417V19.7917C14.0417 20.0679 13.9319 20.3329 13.7366 20.5282C13.5412 20.7236 13.2763 20.8333 13 20.8333C12.7237 20.8333 12.4588 20.7236 12.2634 20.5282C12.0681 20.3329 11.9583 20.0679 11.9583 19.7917V13.5417H5.70834C5.43207 13.5417 5.16712 13.4319 4.97177 13.2366C4.77642 13.0412 4.66667 12.7763 4.66667 12.5C4.66667 12.2237 4.77642 11.9588 4.97177 11.7634C5.16712 11.5681 5.43207 11.4583 5.70834 11.4583H11.9583V5.20834C11.9583 4.93208 12.0681 4.66712 12.2634 4.47177C12.4588 4.27642 12.7237 4.16668 13 4.16668C13.2763 4.16668 13.5412 4.27642 13.7366 4.47177C13.9319 4.66712 14.0417 4.93208 14.0417 5.20834V11.4583H20.2917C20.5679 11.4583 20.8329 11.5681 21.0282 11.7634C21.2236 11.9588 21.3333 12.2237 21.3333 12.5C21.3333 12.7763 21.2236 13.0412 21.0282 13.2366C20.8329 13.4319 20.5679 13.5417 20.2917 13.5417Z" fill="#AC9A9A"/>
</g>
<defs>
<clipPath id="clip0_5_77">
<rect width="25" height="25" fill="white" transform="matrix(1 0 0 -1 0.5 25)"/>
</clipPath>
</defs>
</svg>
