<svg width="20" height="21" viewBox="0 0 20 21" fill="none" xmlns="http://www.w3.org/2000/svg">
<g clip-path="url(#clip0_5_94)">
<path d="M2.44276 2.94275C1.85241 3.53309 1.85241 4.4902 2.44276 5.08054L7.86221 10.5L2.44276 15.9195C1.85241 16.5098 1.85241 17.467 2.44276 18.0573C3.03308 18.6476 3.99021 18.6476 4.58054 18.0573L9.99997 12.6377L15.4195 18.0573C16.0098 18.6476 16.967 18.6476 17.5573 18.0573C18.1476 17.467 18.1476 16.5098 17.5573 15.9195L12.1377 10.5L17.5573 5.08056C18.1476 4.49023 18.1476 3.5331 17.5573 2.94278C16.9668 2.35243 16.0098 2.35243 15.4195 2.94278L9.99997 8.3622L4.58054 2.94275C3.99021 2.35242 3.03308 2.35242 2.44276 2.94275Z" fill="#FAF9F9"/>
</g>
<defs>
<clipPath id="clip0_5_94">
<rect width="16" height="16" fill="white" transform="translate(2 2.5)"/>
</clipPath>
</defs>
</svg>
