<svg width="20" height="21" viewBox="0 0 20 21" fill="none" xmlns="http://www.w3.org/2000/svg">
<g clip-path="url(#clip0_2_2)">
<path d="M19.6347 8.93911L17.0652 8.54011C16.9147 8.05024 16.7091 7.57937 16.4517 7.1337L17.9517 5.10276C18.073 4.93878 18.0521 4.71533 17.903 4.57324L16.2121 2.96774C16.0613 2.82483 15.8239 2.80624 15.6508 2.92478L13.5452 4.36259C13.0717 4.11393 12.5717 3.9165 12.053 3.77317L11.6047 1.342C11.5682 1.14457 11.3878 1 11.1765 1H8.78517C8.57213 1 8.39039 1.14663 8.35604 1.34654L7.94039 3.7645C7.41865 3.907 6.91778 4.10237 6.44604 4.34772L4.34604 2.92272C4.17256 2.805 3.93648 2.824 3.78561 2.9665L2.09561 4.572C1.94648 4.71367 1.92561 4.93672 2.04691 5.1007L3.52474 7.10933C3.26169 7.56161 3.05213 8.04033 2.89952 8.53846L0.364302 8.93952C0.154737 8.97257 0.000823975 9.14522 0.000823975 9.34678V11.6185C0.000823975 11.8188 0.152128 11.9903 0.35952 12.0254L2.89474 12.4525C3.04648 12.9493 3.25604 13.4281 3.51995 13.8816L2.02387 15.8696C1.90039 16.0335 1.91995 16.2587 2.06995 16.402L3.76039 18.0091C3.90952 18.1508 4.14474 18.1706 4.31735 18.0554L6.43474 16.6465C6.90995 16.8947 7.41213 17.0918 7.93256 17.2347L8.35691 19.6555C8.39126 19.8542 8.57256 20 8.78517 20H11.1765C11.3873 20 11.5678 19.8563 11.6043 19.6592L12.0586 17.2264C12.58 17.0806 13.0795 16.8823 13.55 16.6337L15.6826 18.055C15.8556 18.171 16.0904 18.1508 16.24 18.0091L17.9304 16.402C18.0808 16.2587 18.1004 16.0327 17.9756 15.8683L16.4547 13.8622C16.7126 13.4161 16.9173 12.9444 17.0665 12.4545L19.6395 12.0254C19.8478 11.9907 19.9991 11.8188 19.9991 11.6185V9.34678C19.9995 9.14439 19.8452 8.97174 19.6347 8.93911ZM9.99995 13.3913C8.31908 13.3913 6.95648 12.0968 6.95648 10.5C6.95648 8.90317 8.31908 7.6087 9.99995 7.6087C11.6808 7.6087 13.0434 8.90317 13.0434 10.5C13.0434 12.0968 11.6808 13.3913 9.99995 13.3913Z" fill="#FAF9F9"/>
</g>
<defs>
<clipPath id="clip0_2_2">
<rect width="20" height="19" fill="white" transform="translate(0 1)"/>
</clipPath>
</defs>
</svg>
