<svg width="30" height="30" viewBox="0 0 30 30" fill="none" xmlns="http://www.w3.org/2000/svg">
<g clip-path="url(#clip0_5_220)">
<path d="M7.44276 7.44275C6.85241 8.03309 6.85241 8.9902 7.44276 9.58054L12.8622 15L7.44276 20.4195C6.85241 21.0098 6.85241 21.967 7.44276 22.5573C8.03308 23.1476 8.99021 23.1476 9.58054 22.5573L15 17.1377L20.4195 22.5573C21.0098 23.1476 21.967 23.1476 22.5573 22.5573C23.1476 21.967 23.1476 21.0098 22.5573 20.4195L17.1377 15L22.5573 9.58056C23.1476 8.99023 23.1476 8.0331 22.5573 7.44278C21.9668 6.85243 21.0098 6.85243 20.4195 7.44278L15 12.8622L9.58054 7.44275C8.99021 6.85242 8.03308 6.85242 7.44276 7.44275Z" fill="white"/>
</g>
<defs>
<clipPath id="clip0_5_220">
<rect width="16" height="16" fill="white" transform="translate(7 7)"/>
</clipPath>
</defs>
</svg>
