<svg width="30" height="30" viewBox="0 0 30 30" fill="none" xmlns="http://www.w3.org/2000/svg">
<path fill-rule="evenodd" clip-rule="evenodd" d="M11.25 14.375C11.25 14.03 11.53 13.75 11.875 13.75C12.22 13.75 12.5 14.03 12.5 14.375V21.875C12.5 22.2206 12.22 22.5 11.875 22.5C11.53 22.5 11.25 22.2206 11.25 21.875V14.375ZM14.375 14.375C14.375 14.03 14.655 13.75 15 13.75C15.345 13.75 15.625 14.03 15.625 14.375V21.875C15.625 22.2206 15.345 22.5 15 22.5C14.655 22.5 14.375 22.2206 14.375 21.875V14.375ZM17.5 14.375C17.5 14.03 17.78 13.75 18.125 13.75C18.47 13.75 18.75 14.03 18.75 14.375V21.875C18.75 22.2206 18.47 22.5 18.125 22.5C17.78 22.5 17.5 22.2206 17.5 21.875V14.375ZM8.125 22.5C8.125 23.8806 9.24437 25 10.625 25H19.375C20.7556 25 21.875 23.8806 21.875 22.5V12.5H8.125V22.5ZM16.875 7.5H13.125V6.875C13.125 6.52938 13.405 6.25 13.75 6.25H16.25C16.595 6.25 16.875 6.52938 16.875 6.875V7.5ZM21.875 7.5H18.125V6.25C18.125 5.56 17.565 5 16.875 5H13.125C12.435 5 11.875 5.56 11.875 6.25V7.5H8.125C7.435 7.5 6.875 8.06 6.875 8.75V10C6.875 10.69 7.43437 11.2494 8.12437 11.25H21.8763C22.5656 11.2494 23.125 10.69 23.125 10V8.75C23.125 8.06 22.565 7.5 21.875 7.5Z" fill="white"/>
</svg>
